<?xml version="1.0" encoding="UTF-8"?>
<svg width="400px" height="400px" viewBox="0 0 400 400" version="1.1" xmlns="http://www.w3.org/2000/svg" xmlns:xlink="http://www.w3.org/1999/xlink">
    <!-- Generator: Sketch 51.3 (57544) - http://www.bohemiancoding.com/sketch -->
    <title>black</title>
    <desc>Created with Sketch.</desc>
    <defs>
        <path d="M22.1796875,43.2851563 L42.2288133,64.5416057 C61.8477216,61.0910287 73.2844714,61.0910287 76.5390625,64.5416057 C79.7936536,67.9921827 78.0005791,78.2165833 71.1598388,95.2148076 L92.6914063,118.042969 L92.6914063,237.871094 L77.6107156,251.706114 C82.8279206,273.969053 82.8279206,287.493653 77.6107156,292.279915 C72.3935105,297.066177 57.6511885,297.066177 33.3837496,292.279915 L0.7578125,322.210938 L126.761719,336.664063 C142.312066,307.074631 153.724826,292.279915 161,292.279915 C168.275174,292.279915 178.039497,307.074631 190.292969,336.664063 L271.994488,283.21954 C255.490576,283.396323 245.91673,281.589744 243.272949,277.799805 C240.629169,274.009865 242.518773,264.80085 248.941762,250.17276 L235.136719,230.382813 L235.136719,118.042969 L248.079901,100.79529 C239.321025,78.4649487 236.976683,64.5878731 241.046875,59.1640625 C245.117067,53.7402519 259.458597,51.6302506 284.071464,52.8340585 L323.6875,0.04296875 L190.292969,22.2578125 C177.779948,46.8619792 168.015625,59.1640625 161,59.1640625 C153.984375,59.1640625 145.49349,46.8619792 135.527344,22.2578125 L22.1796875,43.2851563 Z" id="path-1"></path>
    </defs>
    <g id="black" stroke="none" stroke-width="1" fill="none" fill-rule="evenodd">
        <g id="Group-3" transform="translate(40.000000, 16.000000)">
            <g id="mask-ring" transform="translate(0.000000, 9.000000)">
                <mask id="mask-2" fill="white">
                    <use xlink:href="#path-1"></use>
                </mask>
                <g id="Mask" fill-rule="nonzero"></g>
                <circle id="Mask" stroke="#000000" stroke-width="21" fill-rule="nonzero" mask="url(#mask-2)" cx="161" cy="174" r="140"></circle>
            </g>
            <g id="spoke" transform="translate(23.000000, 0.000000)" fill-rule="nonzero" stroke="#000000" stroke-linecap="round">
                <g id="Group" transform="translate(52.610593, 106.224617) rotate(-48.000000) translate(-52.610593, -106.224617) translate(51.110593, 37.724617)">
                    <path d="M2,64.078125 L2,135.98122" id="Path-3" stroke-width="8"></path>
                    <path d="M1.77795734,0.314951296 L1.77795734,20.3149513" id="Path-3" stroke-width="12"></path>
                </g>
                <g id="Group" transform="translate(228.381159, 97.812342) scale(-1, 1) rotate(-48.000000) translate(-228.381159, -97.812342) translate(226.881159, 26.312342)">
                    <path d="M1.59511639,80.3824766 L1.59511639,142.13664" id="Path-3" stroke-width="8"></path>
                    <path d="M1,0.078125 L1,20.078125" id="Path-3" stroke-width="12"></path>
                </g>
                <g id="Group-2" transform="translate(136.000000, 0.000000)">
                    <path d="M1,68.078125 L1,128.078125" id="Path-3" stroke-width="8"></path>
                    <path d="M1,0.078125 L1,20.078125" id="Path-3" stroke-width="12"></path>
                </g>
            </g>
            <g id="spoke" transform="translate(155.500000, 290.500000) scale(-1, -1) translate(-155.500000, -290.500000) translate(16.000000, 212.000000)" fill-rule="nonzero" stroke="#000000" stroke-linecap="round">
                <g id="Group" transform="translate(51.390745, 107.599886) rotate(-48.000000) translate(-51.390745, -107.599886) translate(49.390745, 40.599886)">
                    <path d="M3,61.078125 L3,132.98122" id="Path-3" stroke-width="8"></path>
                    <path d="M1.88678408,0.808632766 L1.88678408,20.8086328" id="Path-3" stroke-width="12"></path>
                </g>
                <g id="Group" transform="translate(222.108827, 105.023249) scale(-1, 1) rotate(-48.000000) translate(-222.108827, -105.023249) translate(220.108827, 30.523249)">
                    <path d="M1.17845177,76.3837203 L1.17845177,148.286815" id="Path-3" stroke-width="8"></path>
                    <path d="M2.29166769,0.653212508 L2.29166769,20.6532125" id="Path-3" stroke-width="12"></path>
                </g>
                <g id="Group-2" transform="translate(134.000000, 0.000000)">
                    <path d="M1,68.078125 L1,128.078125" id="Path-3" stroke-width="8"></path>
                    <path d="M1,0.078125 L1,20.078125" id="Path-3" stroke-width="12"></path>
                </g>
            </g>
            <circle id="6" stroke="#000000" stroke-width="15" fill-rule="nonzero" cx="263" cy="273" r="20.5"></circle>
            <circle id="5" stroke="#000000" stroke-width="15" fill-rule="nonzero" cx="160" cy="326" r="23.5"></circle>
            <circle id="4" stroke="#000000" stroke-width="15" fill-rule="nonzero" cx="55.5" cy="278.5" r="28"></circle>
            <circle id="3" stroke="#000000" stroke-width="15" fill-rule="nonzero" cx="265.5" cy="86.5" r="28"></circle>
            <circle id="2" stroke="#000000" stroke-width="15" fill-rule="nonzero" cx="160" cy="42" r="23.5"></circle>
            <circle id="1" stroke="#000000" stroke-width="15" fill-rule="nonzero" cx="55" cy="88" r="20.5"></circle>
            <circle id="center-hollow" stroke="#000000" stroke-width="15" fill-rule="nonzero" cx="161.5" cy="183.5" r="48.5"></circle>
        </g>
    </g>
</svg>