<svg width="32" height="32" xmlns="http://www.w3.org/2000/svg" xmlns:xlink="http://www.w3.org/1999/xlink"><defs><path d="M1.786 3.486l1.615 1.711c1.58-.278 2.5-.278 2.762 0 .263.278.118 1.102-.433 2.47l1.734 1.839v9.649L6.25 20.269c.42 1.793.42 2.882 0 3.267-.42.386-1.608.386-3.562 0l-2.627 2.41 10.147 1.164c1.252-2.382 2.17-3.574 2.757-3.574.586 0 1.372 1.192 2.359 3.574l6.775-3.574c-1.329.015-1.84-.076-2.053-.381-.212-.306-.517-1.832 0-3.01l-1.111-1.593V9.506l1.042-1.39c-.705-1.797-.894-2.915-.566-3.352.327-.436 1.482-.606 3.464-.51l3.19-4.25-10.741 1.788c-1.008 1.982-1.794 2.972-2.36 2.972-.564 0-1.248-.99-2.05-2.972L1.786 3.486z" id="a"/></defs><g transform="translate(3.2 1.143)" fill="none" fill-rule="evenodd"><g transform="translate(0 .725)"><mask id="b" fill="#fff"><use xlink:href="#a"/></mask><circle stroke="#FFF" stroke-width="1.8" mask="url(#b)" cx="12.965" cy="14.012" r="11.274"/></g><g stroke-linecap="round" stroke="#FFF"><path d="M5.964 8.16l4.303 3.874" stroke-width=".8"/><path d="M2.111 4.765l1.197 1.078" stroke-width=".85"/><path d="M19.639 8.274l-3.696 3.328" stroke-width=".8"/><path d="M24.544 4.058l-1.197 1.078" stroke-width=".85"/><g><path d="M12.884 5.482v4.832" stroke-width=".8"/><path d="M12.884.006v1.61" stroke-width=".85"/></g></g><g stroke-linecap="round" stroke="#FFF"><path d="M19.802 21.557L15.5 17.682" stroke-width=".8"/><path d="M23.677 25.594l-1.197-1.078" stroke-width=".85"/><path d="M5.948 21.118l4.303-3.874" stroke-width=".8"/><path d="M1.54 25.336l1.197-1.077" stroke-width=".85"/><g><path d="M12.884 24.232v-4.831" stroke-width=".8"/><path d="M12.884 29.708v-1.61" stroke-width=".85"/></g></g><circle stroke="#FFF" stroke-width="1.5" cx="21.178" cy="22.984" r="1.651"/><circle stroke="#FFF" stroke-width="1.5" cx="12.884" cy="26.252" r="1.892"/><circle stroke="#FFF" stroke-width="1.5" cx="4.305" cy="22.812" r="2.255"/><circle stroke="#FFF" stroke-width="1.5" cx="21.38" cy="6.562" r="2.255"/><circle stroke="#FFF" stroke-width="1.5" cx="12.884" cy="3.382" r="1.892"/><circle stroke="#FFF" stroke-width="1.5" cx="4.429" cy="6.888" r="1.651"/><circle stroke="#FFF" stroke-width="1.5" cx="13.005" cy="14.777" r="3.906"/></g></svg>
