<svg xmlns="http://www.w3.org/2000/svg" id="master-artboard" viewBox="0 0 141.73228 141.73228"><defs><style>.cls-1,.cls-4{fill:#fff}.cls-1{fill-opacity:0}.cls-2{fill:#3b7497}.cls-2,.cls-3,.cls-4,.cls-5,.cls-6,.cls-7{fill-rule:evenodd}.cls-3{fill:#477495}.cls-5{fill:#30799b}.cls-6{fill:#b8e686}.cls-7{fill:#ef8a97}</style></defs><title>brigade-icon</title><path id="ee-background" class="cls-1" d="M1.703 30.033h138.333v86.043H1.703z"/><path class="cls-2" d="M16.672 70.947a1.541 1.541 0 0 0 .596.192 7.687 7.687 0 0 1 2.25.953 4.407 4.407 0 0 1 1.993 2.853 6.99 6.99 0 0 1-.162 3.793 6.182 6.182 0 0 1-2.977 3.496 10.153 10.153 0 0 1-3.381 1.104 18.286 18.286 0 0 1-3.085.217c-2.743-.01-5.486-.004-8.229-.004h-.553l-.064-.073c-.01-.014-.027-.03-.027-.044q-.01-11.674-.015-23.349a1.415 1.415 0 0 1 .02-.182c.122-.125.252-.093.372-.093 2.992.001 5.985-.018 8.976.015a13.76 13.76 0 0 1 4.512.726 6.269 6.269 0 0 1 1.655.853 4.682 4.682 0 0 1 1.887 2.879 5.914 5.914 0 0 1-.066 2.958 5.072 5.072 0 0 1-3.282 3.468c-.142.051-.312.052-.42.238zm-7.309 7.787c1.13-.018 2.231.044 3.33-.045a4 4 0 0 0 1.542-.398 2.23 2.23 0 0 0 1.275-1.902 4.298 4.298 0 0 0-.003-.747 1.952 1.952 0 0 0-1.25-1.717 3.94 3.94 0 0 0-1.13-.303 28.181 28.181 0 0 0-3.68-.075c-.029 0-.058.034-.087.053-.059.435-.063 4.563.003 5.134zm.003-9.586c.981-.016 1.943.062 2.896-.05a2.353 2.353 0 0 0 2.167-2.668 1.656 1.656 0 0 0-1.186-1.548 4.31 4.31 0 0 0-1.358-.242q-1.12-.009-2.24-.01c-.103 0-.217-.022-.294.08-.053.5-.048 3.897.015 4.438zM36.88 83.522l-4.067-7.9h-2.347c-.02.028-.033.041-.043.055-.01.014-.027.028-.03.044a1.123 1.123 0 0 0-.015.159l-.015 7.534a.234.234 0 0 1-.012.051l-.04.037c-.013.011-.026.031-.04.031q-2.965.01-5.931.016a1.185 1.185 0 0 1-.196-.03c-.083-.423-.116-22.672-.038-23.619.088-.124.222-.09.34-.09 3.154.003 6.307-.01 9.46.022a12.668 12.668 0 0 1 3.936.649 6.719 6.719 0 0 1 3.798 2.947 6.503 6.503 0 0 1 .875 2.668 10.584 10.584 0 0 1-.189 3.769 6.986 6.986 0 0 1-2.912 4.08c-.19.133-.387.252-.63.41.823 1.534 1.694 3.037 2.536 4.556.841 1.52 1.714 3.024 2.565 4.61zM30.4 70.595c1.001 0 1.943.019 2.884-.008a4.174 4.174 0 0 0 1.453-.314 2.56 2.56 0 0 0 1.6-1.802 3.95 3.95 0 0 0 .107-1.323 2.136 2.136 0 0 0-1.666-2.094 5.484 5.484 0 0 0-1.148-.226c-.959-.098-1.92-.053-2.88-.063-.12-.002-.252-.03-.35.09v5.74zm69.908 1.128l-.001-8.497a3.335 3.335 0 0 1 1.982-3.154 3.377 3.377 0 0 1 1.354-.261c1.62.002 3.243-.029 4.862.029a14.005 14.005 0 0 1 5.135 1.114 9.303 9.303 0 0 1 5.337 6.105 13.976 13.976 0 0 1 .564 3.414 18.3 18.3 0 0 1-.236 4.309 10.48 10.48 0 0 1-2.879 5.728 9.906 9.906 0 0 1-4.42 2.483 14.976 14.976 0 0 1-3.9.553c-.57.004-1.141-.006-1.71.007-.943.021-1.885.02-2.828.052a3.085 3.085 0 0 1-3.182-2.537 6.65 6.65 0 0 1-.066-1.383q.005-3.34.002-6.68v-1.282zm6.326 6.756a1.83 1.83 0 0 0 .248.035 9.556 9.556 0 0 0 2.786-.405 4.247 4.247 0 0 0 2.278-1.675 6.327 6.327 0 0 0 .954-2.3 13.777 13.777 0 0 0 .175-3.985 7.105 7.105 0 0 0-.706-2.663 4.219 4.219 0 0 0-2.836-2.321 9.666 9.666 0 0 0-2.534-.312c-.119.002-.252-.038-.364.1V78.48zm-3.086-16.723a1.286 1.286 0 1 0 1.309 1.282 1.315 1.315 0 0 0-1.309-1.282zm-33.079 4.6c-.426-.3-.794-.58-1.182-.83a5.25 5.25 0 0 0-3.115-.744 5.177 5.177 0 0 0-2.762.873 5.673 5.673 0 0 0-2.141 2.73 7.707 7.707 0 0 0-.516 2.282 10.931 10.931 0 0 0 .396 4.122 5.846 5.846 0 0 0 .942 1.843 4.904 4.904 0 0 0 3.017 1.774 8.648 8.648 0 0 0 2.446.126 2.68 2.68 0 0 0 1.174-.394v-3.276H65.32a45.43 45.43 0 0 1-.031-5.049c.085-.088.197-.06.3-.06 2.155-.003 4.31-.007 6.465 0a2.247 2.247 0 0 1 2.176 1.584 1.611 1.611 0 0 1 .086.523l-.003 9.03a1.816 1.816 0 0 1-.023.19 8.443 8.443 0 0 1-1.666 1.2 13.11 13.11 0 0 1-6.11 1.698 13.315 13.315 0 0 1-5.486-.925 10.27 10.27 0 0 1-5.856-5.958 12.54 12.54 0 0 1-.857-4.054 15.573 15.573 0 0 1 .314-4.566 11.177 11.177 0 0 1 8.61-8.75 12.628 12.628 0 0 1 4.19-.306 10.277 10.277 0 0 1 5.46 2.223 4.99 4.99 0 0 1 .968.9l-3.39 3.814zM82.7 59.827h7.57c.255.526 7.183 23.292 7.209 23.7h-6.563c-.43-1.633-.76-3.3-1.177-4.935-.412-.09-5.997-.111-6.671-.025l-.576 2.468q-.292 1.243-.589 2.49H75.47zm3.747 4.687a.25.25 0 0 0-.208.238q-.985 4.412-1.965 8.826a31.477 31.477 0 0 0 4.309-.029c-.792-2.984-1.4-6.011-2.136-9.035zm42.83.55v3.685a9.405 9.405 0 0 0 1.545.046c.517.01 1.033.002 1.55.002h4.577a45.53 45.53 0 0 1 .011 5.235h-7.602a25.13 25.13 0 0 0-.074 4.178l.04.035a.2.2 0 0 0 .04.032.17.17 0 0 0 .053.01c.053.003.107.008.16.008l8.978.015a.14.14 0 0 1 .046.02 47.726 47.726 0 0 1 .039 5.149c-.386.092-15.065.109-15.621.018-.075-.408-.104-22.735-.03-23.599a.387.387 0 0 1 .035-.04.092.092 0 0 1 .042-.027 2.59 2.59 0 0 1 .266-.02q7.427.003 14.856.012c.03 0 .06.028.12.057v5.109c-.165.138-.37.073-.556.073q-3.928.007-7.856.003h-.62z"/><path class="cls-3" d="M46.016 82.375c-.01-.177-.026-.354-.026-.53q-.002-8.611 0-17.221c0-.177.017-.354.026-.53.249.02.289.24.374.407a2.894 2.894 0 0 0 1.395 1.34 3.138 3.138 0 0 0 4.103-1.388c.079-.155.127-.345.351-.36.01.177.026.354.026.531q.002 8.61 0 17.22c0 .177-.017.354-.026.53-.195-.012-.262-.163-.324-.31a2.665 2.665 0 0 0-1.133-1.225 2.915 2.915 0 0 0-2.022-.472 3.136 3.136 0 0 0-2.443 1.745c-.065.134-.135.25-.301.263z"/><path class="cls-2" d="M94.587 100.452a4.724 4.724 0 0 0 .463.867c.543.941 1.1 1.874 1.644 2.814a3.649 3.649 0 0 1 .302.622 1.182 1.182 0 0 1-1.98 1.187 3.518 3.518 0 0 1-.482-.704q-.972-1.658-1.942-3.32c-.062-.106-.13-.208-.214-.342a4.036 4.036 0 0 1-3.229-1.074 3.785 3.785 0 0 1-1.13-2.137 3.862 3.862 0 0 1 6.705-3.197 3.784 3.784 0 0 1 .962 2.696 3.96 3.96 0 0 1-1.099 2.588zm-2.772-4.633a1.916 1.916 0 1 0 1.952 1.89 1.923 1.923 0 0 0-1.952-1.89zM55.87 42.744a4.005 4.005 0 0 1 3.077.936 3.866 3.866 0 1 1-5.527 5.369 3.77 3.77 0 0 1-.875-2.624 3.832 3.832 0 0 1 1.106-2.543 1.666 1.666 0 0 0-.256-.538q-.955-1.637-1.917-3.271a1.61 1.61 0 0 1-.289-.9 1.127 1.127 0 0 1 .737-1.078 1.138 1.138 0 0 1 1.283.249 2.522 2.522 0 0 1 .424.612q1 1.705 1.993 3.413c.071.12.153.235.244.375zm.54 5.766a1.893 1.893 0 0 0 1.948-1.906 1.972 1.972 0 0 0-1.945-1.944 1.933 1.933 0 0 0-1.926 1.94 1.893 1.893 0 0 0 1.924 1.91zm20.887-5.089c-.123.09-.148.237-.213.36a3.335 3.335 0 0 1-6.19-.37 2.754 2.754 0 0 1-.128-.556c-.08-.472.05-.935.01-1.402a1.537 1.537 0 0 0 .134-.225 3.437 3.437 0 0 1 1.819-1.932c.063-.03.121-.067.167-.092a1.488 1.488 0 0 0 .05-.604q.004-2.965.003-5.93a3.096 3.096 0 0 1 .037-.584 1.202 1.202 0 0 1 2.385.172c.009.141.003.284.003.427v6.6a3.489 3.489 0 0 1 1.915 2.181 5.37 5.37 0 0 1 .117 1.186 2.606 2.606 0 0 0-.109.769zm-3.237-2.44a1.363 1.363 0 0 0-1.397 1.364 1.39 1.39 0 0 0 1.394 1.431 1.42 1.42 0 0 0 1.41-1.428 1.395 1.395 0 0 0-1.407-1.367zm-3.069 59.834c.081-.136.165-.27.243-.408a3.34 3.34 0 0 1 6.083.402l.08.197a4.067 4.067 0 0 1 .117 1.262c.006.233-.157.439-.096.677a.394.394 0 0 0-.062.086 3.435 3.435 0 0 1-1.932 2.026.534.534 0 0 0-.093.067 1.144 1.144 0 0 0-.051.57q-.006 3.018-.003 6.037a3.493 3.493 0 0 1-.014.48 1.218 1.218 0 0 1-1.141 1.021 1.202 1.202 0 0 1-1.209-.935 3.622 3.622 0 0 1-.048-.69c-.005-1.995-.004-3.99-.008-5.985a1.496 1.496 0 0 0-.05-.602 1.27 1.27 0 0 0-.156-.11 3.316 3.316 0 0 1-1.643-1.95 1.686 1.686 0 0 0-.123-.235 8.537 8.537 0 0 1 .106-1.91zm3.193-.267a1.403 1.403 0 1 0 .036 2.805 1.403 1.403 0 0 0-.036-2.805zm-12.28-.752a.427.427 0 0 0-.3.085 2.83 2.83 0 0 1-1.509.47 1 1 0 0 0-.193.05c-.276.465-.568.953-.855 1.443q-1.025 1.752-2.047 3.506a2.537 2.537 0 0 1-.477.64 1.184 1.184 0 0 1-1.919-1.213 3.875 3.875 0 0 1 .45-.906q1.279-2.192 2.562-4.38c.045-.077.085-.155.149-.272a3 3 0 0 1-.47-2.27 2.813 2.813 0 0 1 .687-1.295.564.564 0 0 0 .19-.368 1.148 1.148 0 0 0 .537-.216 2.807 2.807 0 0 1 4.133 2.732c-.01.142-.027.283-.041.424a3.512 3.512 0 0 1-.838 1.375c-.043.04-.04.129-.059.195zm-1.847-3.115a.861.861 0 0 0-.888.863.876.876 0 0 0 1.751.024.86.86 0 0 0-.863-.887zm30.181-48.008c-.193-.08-.333.04-.49.119a2.814 2.814 0 0 1-4.114-2.39c-.012-.194 0-.389 0-.584a4.202 4.202 0 0 1 .857-1.608 3.346 3.346 0 0 1 2.08-.74c.514-.872 1.02-1.728 1.523-2.586q.77-1.313 1.537-2.628a1.218 1.218 0 0 1 1.274-.688 1.182 1.182 0 0 1 1 1.48 2.576 2.576 0 0 1-.298.625l-2.753 4.7c-.036.06-.07.123-.09.157-.033.172.065.266.122.373a2.71 2.71 0 0 1 .334 1.8.734.734 0 0 0 .015.37c-.028.02-.072.034-.082.06a2.922 2.922 0 0 1-.781 1.161.416.416 0 0 0-.134.38zm-.93-2.378a.887.887 0 0 0-.87-.888.918.918 0 0 0-.874.895.9.9 0 0 0 .88.884.88.88 0 0 0 .864-.891z"/><path class="cls-3" d="M52.291 83.509a3.145 3.145 0 0 1-6.29 0V62.962a3.145 3.145 0 1 1 6.29 0V83.51z"/><path class="cls-2" d="M52.27 83.496a3.139 3.139 0 1 1-3.139-3.14 3.139 3.139 0 0 1 3.139 3.14zm0-20.507a3.139 3.139 0 0 1-3.139 3.138 3.139 3.139 0 1 1 3.139-3.138z"/><path class="cls-4" d="M50.367 83.496a1.236 1.236 0 0 1-1.236 1.236 1.236 1.236 0 0 1-1.236-1.236 1.236 1.236 0 0 1 1.236-1.237 1.236 1.236 0 0 1 1.236 1.237z"/><path class="cls-5" d="M99.11 56.245a.924.924 0 0 1-.604.864.912.912 0 0 1-.991-.192 1.646 1.646 0 0 1-.295-.377 33.173 33.173 0 0 0-2.484-3.536 2.087 2.087 0 0 1-.233-.357.947.947 0 0 1 1.451-1.163 1.901 1.901 0 0 1 .261.266 33.191 33.191 0 0 1 2.698 3.843 1.12 1.12 0 0 1 .197.652zM64.691 42.812a.944.944 0 0 1 .579 1.691 1.822 1.822 0 0 1-.419.232c-.626.255-1.256.5-1.885.748a1.455 1.455 0 0 1-.518.117.94.94 0 0 1-.912-.616.926.926 0 0 1 .288-1.06 1.724 1.724 0 0 1 .414-.239c.642-.263 1.289-.515 1.932-.773a1.44 1.44 0 0 1 .521-.1zM51.817 88.749a.887.887 0 0 1 .608.245 4.019 4.019 0 0 1 .352.4q.543.728 1.074 1.464a2.523 2.523 0 0 1 .252.409.943.943 0 0 1-.293 1.147.921.921 0 0 1-1.14 0 2.096 2.096 0 0 1-.365-.386q-.593-.79-1.17-1.591a1.776 1.776 0 0 1-.234-.418.96.96 0 0 1 .916-1.27zM83.714 101.7a.97.97 0 0 1-.911-.698.938.938 0 0 1 .372-1.034 1.55 1.55 0 0 1 .33-.17q.974-.37 1.952-.728a2.025 2.025 0 0 1 .412-.111.937.937 0 0 1 .994.562.948.948 0 0 1-.302 1.146 1.392 1.392 0 0 1-.326.18q-.997.38-1.998.753a1.45 1.45 0 0 1-.523.1zm-21.811-1.905c.019-.066.016-.155.06-.195a3.512 3.512 0 0 0 .837-1.375c.819.302 1.608.673 2.392 1.053a.953.953 0 0 1 .012 1.715 1.038 1.038 0 0 1-.929-.018c-.505-.221-1.01-.446-1.513-.67-.146-.065-.293-.13-.437-.2a.86.86 0 0 1-.422-.31zM86.491 44.21a4.194 4.194 0 0 0-.858 1.608 19.827 19.827 0 0 1-2.416-.992.911.911 0 0 1-.499-1.161.958.958 0 0 1 1.154-.623.777.777 0 0 1 .154.04c.739.31 1.478.617 2.214.934a1.282 1.282 0 0 1 .25.194zm-9.195-.789a2.603 2.603 0 0 1 .109-.768 5.37 5.37 0 0 0-.117-1.187c.473.066.947.13 1.42.2a3.216 3.216 0 0 1 .57.118.968.968 0 0 1 .659 1.033.942.942 0 0 1-.958.822c-.423-.012-.844-.091-1.265-.145-.14-.018-.278-.048-.418-.073zm12.941 5.252a.416.416 0 0 1 .134-.38 2.922 2.922 0 0 0 .78-1.16c.01-.026.055-.04.083-.061a8.65 8.65 0 0 1 1.316.986.944.944 0 0 1 .145 1.337.93.93 0 0 1-1.287.19 6.895 6.895 0 0 1-1.171-.912zM70.99 100.815a8.541 8.541 0 0 0-.106 1.91 10.425 10.425 0 0 1-1.619-.253.967.967 0 0 1-.803-1.078.98.98 0 0 1 1.118-.818c.473.056.94.158 1.41.239zm6.428 2.13c-.062-.238.101-.444.095-.677a4.067 4.067 0 0 0-.117-1.262c.37-.035.739-.073 1.109-.105a3.935 3.935 0 0 1 .53-.023.964.964 0 0 1 .936.846.933.933 0 0 1-.776 1.042 5.06 5.06 0 0 1-1.263.121c-.076-.109-.144-.095-.206.014l-.308.044zm-19.246-7.66a.564.564 0 0 1-.191.368 2.813 2.813 0 0 0-.688 1.295c-.415-.33-.84-.648-1.244-.992a.966.966 0 0 1-.244-1.364.893.893 0 0 1 1.025-.368 3.074 3.074 0 0 1 1.342 1.061zm12.603-53.832c.04.467-.09.93-.01 1.402a2.749 2.749 0 0 0 .128.557c-.336.03-.673.06-1.009.087a4.217 4.217 0 0 1-.585.03.95.95 0 0 1-.313-1.825 1.285 1.285 0 0 1 .357-.105c.476-.055.955-.098 1.432-.146z"/><path class="cls-3" d="M77.726 102.901c.061-.108.13-.122.206-.014a.15.15 0 0 1-.206.014z"/><path class="cls-6" d="M91.815 95.819a1.924 1.924 0 0 1 1.953 1.89 1.932 1.932 0 1 1-1.953-1.89z"/><path class="cls-7" d="M56.41 48.51a1.893 1.893 0 0 1-1.924-1.91 1.934 1.934 0 0 1 1.926-1.94 1.972 1.972 0 0 1 1.945 1.944 1.893 1.893 0 0 1-1.947 1.906z"/></svg>
